<svg xmlns="http://www.w3.org/2000/svg" viewBox="0 0 100 125" x="0px" y="0px" fill='#FFEE93'><path d="m 32.637517 33.995811 c .373565 .373557 .981865 .37198 1.35544 -.0016 c .373557 -.373561 .371975 -.978696 -.0016 -1.352265 l -7.331049 -7.330941 c -.373563 -.373558 -.977143 -.373557 -1.350706 0 c -.373568 .373563 -.376741 .980307 -.0032 1.353841 z"/><path d="m 16.038536 49.042762 c -.528297 0 -.957324 .431244 -.957324 .959542 c 0 .528289 .429027 .955079 .957324 .955079 l 10.367667 0 c .528298 0 .957325 -.42679 .957325 -.955079 c 0 -.528298 -.429027 -.959543 -.957325 -.959542 l -10.367667 0 z"/><path d="m 73.594043 49.042762 c -.528299 0 -.957325 .431244 -.957325 .959542 c 0 .528289 .429026 .955079 .957325 .955079 l 10.367667 0 c .528298 0 .955093 -.42679 .955093 -.955079 c 0 -.528298 -.426795 -.959543 -.955093 -.959542 l -10.367667 0 z"/><path d="m 50.956332 16.040092 c 0 -.528289 -.43125 -.957311 -.959556 -.957311 c -.528297 0 -.955093 .429022 -.955093 .957311 l 0 10.367517 c 0 .528291 .426796 .957312 .955093 .957312 c .528306 0 .959557 -.429021 .959556 -.957312 l 0 -10.367517 z"/><path d="m 50.956332 73.594768 c 0 -.528291 -.43125 -.957311 -.959556 -.957311 c -.528297 0 -.955093 .42902 -.955093 .957311 l 0 10.367517 c 0 .528291 .426796 .95508 .955093 .95508 c .528306 0 .959557 -.426789 .959556 -.95508 l 0 -10.367517 z"/><path d="m 67.360148 66.00712 c -.373565 -.373557 -.981865 -.37198 -1.35544 .0016 c -.373557 .373561 -.371975 .978696 .0016 1.352265 l 7.331049 7.330941 c .373563 .373558 .977143 .373557 1.350706 0 c .373568 -.373563 .376741 -.980307 .0032 -1.353841 z"/><path d="M 5.5907035 67.358259 C 5.10261 67.560427 4.8712797 68.123023 5.0734524 68.611106 C 5.275625 69.099183 5.8353216 69.329307 6.3234037 69.127138 L 28.568724 59.912957 c .488082 -.202168 .721127 -.760648 .518954 -1.248724 c -.202172 -.488083 -.763571 -.722323 -1.251653 -.520154 z"/><path d="m 71.431896 40.086335 c -.488083 .202168 -.719409 .764762 -.51724 1.252848 c .202165 .488074 .761859 .718203 1.249951 .516032 l 22.24532 -9.214181 c .488083 -.202168 .719059 -.759796 .516886 -1.247872 c -.202172 -.488083 -.761514 -.723173 -1.249597 -.521006 z"/><path d="m 67.357709 94.408017 c .202173 .488078 .764783 .719408 1.252876 .517236 c .488082 -.202169 .718212 -.761855 .51604 -1.249934 l -9.214308 -22.245 c -.202173 -.488077 -.760659 -.721114 -1.248752 -.518945 c -.488094 .202173 -.722337 .763565 -.520164 1.251643 z"/><path d="m 40.085402 28.567769 c .20217 .488075 .764771 .719409 1.252865 .517236 c .488093 -.202169 .718212 -.761855 .516039 -1.249933 L 32.639998 5.5900713 C 32.437825 5.1019933 31.880185 4.8710161 31.392103 5.0731847 C 30.90401 5.2753577 30.66891 5.8346908 30.871082 6.322769 Z"/><path d="m 30.871939 93.675322 c -.202158 .488084 .03205 1.049619 .519753 1.251805 c .488031 .20232 1.046563 -.03088 1.24874 -.518968 l 9.21432 -22.244998 c .202172 -.488079 -.02805 -1.047626 -.516451 -1.249767 c -.48814 -.202032 -1.050714 .02915 -1.252865 .517216 z"/><path d="m 58.144258 27.835072 c -.202164 .488082 .03205 1.049618 .519764 1.251807 c .48802 .202315 1.046567 -.03087 1.248729 -.518965 C 60.085239 28.151463 66.055614 13.737905 69.12707 6.3229114 C 69.329243 5.834833 69.098278 5.2772115 68.610174 5.0750384 C 68.12209 4.8728732 67.560296 5.1021235 67.358143 5.5901772 Z"/><path d="m 93.67516 69.127143 c .488079 .202174 1.049476 -.03207 1.251653 -.520176 c .202168 -.48808 -.03073 -1.04684 -.518554 -1.248892 L 72.162551 58.144073 c -.488095 -.202165 -1.047796 .02796 -1.249963 .516013 c -.202179 .488084 .02926 1.050381 .517652 1.252686 z"/><path d="m 27.833957 41.855222 c .488084 .202163 1.049492 -.03207 1.251665 -.52018 c .202161 -.488074 -.03073 -1.046841 -.518554 -1.248894 L 6.3213472 30.872151 c -.4880945 -.202165 -1.0457257 .02882 -1.2478948 .516887 c -.2021762 .488086 .027005 1.050008 .5149318 1.252106 z"/><path d="m 67.360148 33.995811 c -.373565 .373557 -.981865 .37198 -1.35544 -.0016 c -.373557 -.373561 -.371975 -.978696 .0016 -1.352265 l 7.331049 -7.330941 c .373563 -.373558 .977143 -.373557 1.350706 0 c .373568 .373563 .376741 .980307 .0032 1.353841 z"/><path d="m 32.637517 66.00712 c .373565 -.373557 .981865 -.37198 1.35544 .0016 c .373557 .373561 .371975 .978696 -.0016 1.352265 l -7.331049 7.330941 c -.373563 .373558 -.977143 .373557 -1.350706 0 c -.373568 -.373563 -.376741 -.980307 -.0032 -1.353841 z"/></svg>